<?xml version="1.0"?>
<svg version="1.1" xmlns="http://www.w3.org/2000/svg" width="400" height="400" style="border: dashed 2px #aaa"><path fill="#" d="M17.1533203125,217.431640625l0-5.400390625q0-5.60546875,0.18798828125-11.12548828125t0.32470703125-11.12548828125q0-1.0595703125-0.068359375-2.3583984375q-0.0341796875-0.3759765625-0.0341796875-0.7177734375q0-0.8544921875,0.13671875-1.6748046875q0.1708984375-1.09375,0.83740234375-1.8798828125t2.20458984375-0.7861328125q1.2646484375,0,1.93115234375,0.2734375t0.93994140625,0.80322265625t0.3076171875,1.3330078125t0.0341796875,1.86279296875q0,5.673828125-0.13671875,11.3818359375q-0.1025390625,3.7939453125-0.1025390625,7.587890625q0,1.9140625,0.0341796875,3.828125q0.068359375,5.673828125,0.52978515625,11.34765625t1.55517578125,11.2109375q3.41796875-0.13671875,6.8359375-0.341796875t6.8359375-0.205078125q0.341796875,0,0.97412109375,0.068359375t1.2646484375,0.2392578125t1.07666015625,0.4443359375t0.4443359375,0.7861328125q0,0.341796875-0.3076171875,0.5810546875t-0.5810546875,0.3759765625l-0.068359375,0q-0.546875,0.2734375-2.17041015625,0.52978515625t-3.69140625,0.39306640625t-4.3408203125,0.2392578125t-4.2724609375,0.1708984375t-3.46923828125,0.1025390625t-1.8115234375,0.0341796875l-0.3076171875,0q-0.8203125,0-1.845703125-0.2734375q-1.23046875-0.341796875-1.5380859375-1.3330078125q-0.615234375-2.529296875-0.97412109375-5.24658203125t-0.546875-5.52001953125t-0.18798828125-5.60546875z M47.493603515625,222.900390625q0-1.9482421875,0.49560546875-4.01611328125t1.572265625-3.7255859375t2.71728515625-2.7001953125t3.96484375-1.04248046875q1.7431640625,0,3.67431640625,0.59814453125t3.53759765625,1.708984375t2.61474609375,2.71728515625t1.00830078125,3.5888671875q0,2.392578125-0.87158203125,4.5458984375t-2.44384765625,3.84521484375t-3.67431640625,2.666015625t-4.56298828125,0.97412109375q-2.0166015625,0-3.5205078125-0.73486328125t-2.51220703125-1.96533203125t-1.50390625-2.9052734375t-0.49560546875-3.5546875z M52.518017578125,222.83203125q0,0.615234375,0.18798828125,1.8115234375t0.56396484375,2.34130859375t0.97412109375,1.982421875t1.45263671875,0.76904296875q1.8115234375-0.205078125,2.99072265625-1.17919921875t1.9140625-2.37548828125t1.025390625-3.0419921875t0.29052734375-3.1103515625q0-1.8798828125-0.73486328125-3.14453125t-2.40966796875-2.05078125q0,0.068359375,0.068359375,0.068359375t0.068359375-0.068359375l-0.8544921875-0.205078125q-0.341796875-0.13671875-0.83740234375-0.3076171875t-0.97412109375-0.751953125q-1.3330078125,0.478515625-2.06787109375,1.23046875t-1.11083984375,1.82861328125t-0.46142578125,2.58056640625t-0.08544921875,3.623046875z M71.98916015625,209.5361328125q0-0.2734375,0.32470703125-0.49560546875t0.73486328125-0.32470703125t0.83740234375-0.13671875t0.63232421875-0.0341796875q1.5380859375,0,2.6318359375,1.3671875t1.89697265625,3.50341796875t1.3671875,4.716796875t1.07666015625,5.14404296875t1.00830078125,4.69970703125t1.11083984375,3.29833984375q1.0595703125-2.0849609375,1.93115234375-5.0244140625t1.6064453125-6.083984375t1.298828125-6.20361328125t0.90576171875-5.34912109375q0.13671875-0.615234375,0.8544921875-0.76904296875t1.1962890625-0.15380859375q0.7861328125,0,1.3671875,0.22216796875t0.5810546875,0.97412109375q0,1.2646484375-0.3076171875,3.43505859375t-0.83740234375,4.87060546875t-1.23046875,5.537109375t-1.50390625,5.38330078125t-1.6748046875,4.51171875t-1.72607421875,2.78564453125q-0.41015625,0.478515625-1.28173828125,0.66650390625t-1.45263671875,0.18798828125q-2.0166015625,0-3.349609375-1.0595703125l0,0.068359375q-2.0849609375-1.9482421875-3.076171875-4.7509765625t-1.435546875-5.8447265625t-0.80322265625-6.0498046875t-1.21337890625-5.46875q-0.13671875-0.2734375-0.341796875-0.80322265625t-0.478515625-1.0595703125t-0.46142578125-1.00830078125t-0.18798828125-0.751953125z M98.945654296875,223.65234375q0-2.392578125,0.52978515625-5.6396484375t1.79443359375-6.15234375t3.33251953125-4.93896484375t5.21240234375-2.03369140625q2.939453125,0,4.4091796875,1.69189453125t1.4697265625,4.56298828125q0,1.8798828125-0.70068359375,4.11865234375t-1.99951171875,4.23828125t-3.076171875,3.33251953125t-3.96484375,1.3330078125l-0.888671875-0.068359375q0,0.9228515625,0.2734375,2.47802734375t0.80322265625,3.09326171875t1.3671875,2.7001953125t2.03369140625,1.162109375q1.7431640625,0,3.349609375-1.4013671875t3.0419921875-3.1103515625t2.666015625-3.1103515625t2.255859375-1.4013671875q0.546875,0,1.1279296875,0.1708984375t0.6494140625,0.95703125q0,0.478515625-0.25634765625,0.7861328125t-0.46142578125,0.68359375q-1.0595703125,1.8115234375-2.30712890625,3.4521484375t-2.81982421875,2.9736328125t-3.43505859375,2.10205078125t-4.11865234375,0.76904296875q-2.939453125,0-4.8876953125-1.04248046875t-3.14453125-2.802734375t-1.72607421875-4.0673828125t-0.52978515625-4.83642578125z M105.06381835938,221.0546875l0.95703125,0.8544921875q0.68359375,0.615234375,1.3671875,0.2734375t1.23046875-1.24755859375t1.00830078125-2.23876953125t0.8203125-2.734375t0.52978515625-2.734375t0.1708984375-2.2216796875l0-1.162109375t-0.1025390625-1.23046875t-0.35888671875-0.97412109375t-0.80322265625-0.49560546875q-0.1708984375-0.0341796875-0.3076171875-0.0341796875q-1.162109375,0-1.982421875,1.4697265625q-0.888671875,1.640625-1.435546875,3.98193359375t-0.7861328125,4.80224609375t-0.3076171875,3.69140625z M140.82739257812,183.2861328125q0-0.68359375,1.0595703125-0.97412109375t1.7431640625-0.29052734375q0.7861328125,0,1.72607421875,0.205078125t1.14501953125,1.0595703125q0.9912109375,3.9990234375,1.52099609375,8.15185546875t0.80322265625,8.35693359375t0.4443359375,8.35693359375t0.3759765625,8.22021484375q0.9228515625-4.0673828125,1.89697265625-8.08349609375t2.54638671875-8.01513671875l0-2.734375q0-1.7431640625,1.21337890625-2.51220703125t3.26416015625-0.76904296875q0.205078125,0,0.93994140625,0.1025390625t0.73486328125,0.68359375q-0.13671875,0.41015625-0.32470703125,0.7861328125t-0.18798828125,0.8203125q0,5.1953125,1.23046875,10.64697265625t2.4267578125,10.61279296875q0.68359375-4.4091796875,1.572265625-8.7841796875t1.845703125-8.7158203125q1.2646484375-5.810546875,1.93115234375-9.65576171875t1.2646484375-6.083984375t1.298828125-3.1787109375t1.96533203125-0.93994140625q0.7861328125-0.068359375,1.4697265625,0.2734375t0.546875,1.1279296875q-2.4609375,11.89453125-4.59716796875,23.857421875t-4.35791015625,23.92578125q0,0.68359375,0.2392578125,1.6064453125t0.2392578125,1.640625q0,0.41015625-0.3759765625,0.68359375t-0.90576171875,0.46142578125t-1.162109375,0.25634765625t-1.11083984375,0.068359375q-1.0595703125,0-2.2216796875-0.32470703125t-1.50390625-1.86279296875q-1.1962890625-5.33203125-2.20458984375-10.71533203125t-1.86279296875-10.85205078125q-0.2734375,1.2646484375-0.5126953125,2.5634765625t-0.4443359375,2.6318359375q-0.9912109375,5.810546875-2.1875,11.62109375t-1.1962890625,11.7578125q0,1.4697265625-0.615234375,1.89697265625t-2.0849609375,0.42724609375q-1.1279296875,0-1.9140625-0.3759765625q-0.615234375-0.341796875-1.162109375-0.615234375q-0.478515625-0.2734375-0.87158203125-0.63232421875t-0.39306640625-0.70068359375q-0.546875-7.4169921875-0.76904296875-14.7314453125t-0.49560546875-14.7314453125q-0.2734375-6.6650390625-0.80322265625-13.31298828125t-1.17919921875-13.21044921875z M182.34443359375,225.9765625l0-3.212890625q0-1.7431640625,0.08544921875-4.93896484375t0.22216796875-7.0068359375t0.3759765625-7.94677734375t0.546875-7.81005859375t0.73486328125-6.57958984375t0.97412109375-4.306640625q0.341796875-0.7861328125,1.1279296875-0.9912109375t1.5380859375-0.205078125q1.1962890625,0,2.10205078125,0.52978515625t0.90576171875,1.93115234375l-0.615234375,0.68359375q-1.1962890625,7.8955078125-1.5380859375,15.859375t-0.478515625,15.927734375q0.8544921875-1.3330078125,1.93115234375-2.61474609375t2.392578125-2.27294921875t2.8369140625-1.58935546875t3.33251953125-0.59814453125q2.32421875,0,3.84521484375,1.4013671875t2.51220703125,3.64013671875t1.4697265625,5.00732421875t0.73486328125,5.537109375t0.35888671875,5.24658203125t0.3076171875,4.11865234375q-0.6494140625,0.888671875-1.9140625,0.888671875l-0.1025390625,0q-0.546875,0-1.1962890625-0.13671875t-0.8544921875-0.68359375l0.068359375,0.068359375q-0.478515625-1.0595703125-0.6494140625-3.05908203125t-0.2734375-4.4091796875t-0.35888671875-4.93896484375t-0.76904296875-4.580078125t-1.50390625-3.3837890625t-2.666015625-1.4013671875l-0.205078125,0q-2.0166015625,0-3.3837890625,1.23046875q-1.435546875,1.298828125-2.32421875,3.41796875t-1.3671875,4.716796875t-0.73486328125,5.00732421875t-0.39306640625,4.375t-0.341796875,2.88818359375q-0.205078125,0.7861328125-1.21337890625,1.04248046875t-1.72607421875,0.25634765625q-1.6748046875,0-2.734375-0.95703125q-0.7861328125-1.8798828125-0.9228515625-4.6826171875t-0.13671875-5.46875z M215.04311523438,221.4306640625q0-3.14453125,0.73486328125-6.16943359375t1.24755859375-6.03271484375q0.13671875-0.7861328125,1.07666015625-0.97412109375t1.58935546875-0.18798828125q1.1279296875,0,1.8115234375,0.341796875q0.2734375,0.13671875,0.5126953125,0.3076171875t0.2392578125,0.4443359375q0,2.939453125-0.70068359375,5.7421875t-0.70068359375,5.947265625q0,1.0595703125,0.15380859375,1.99951171875t0.29052734375,1.86279296875l0.205078125,0.9912109375q0,0.2734375,0.0341796875,0.478515625t0.1025390625,0.478515625q0,0.615234375-0.87158203125,0.83740234375t-1.52099609375,0.22216796875q-0.9912109375,0-1.82861328125-0.39306640625t-1.31591796875-1.35009765625l-0.478515625-0.9912109375q-0.41015625-0.7861328125-0.41015625-1.76025390625t-0.1708984375-1.79443359375z M217.23061523438,200.8544921875l0-0.6494140625q0-1.6064453125,0.80322265625-2.87109375t2.40966796875-1.2646484375q0.205078125,0,0.39306640625,0.0341796875t0.39306640625,0.0341796875q0.41015625,0.068359375,1.07666015625,0.32470703125t0.66650390625,0.80322265625l0,0.068359375q-0.13671875,0.2734375-0.1708984375,0.56396484375t-0.1708984375,0.49560546875l0.068359375-0.068359375q-0.41015625,1.0595703125-0.66650390625,1.708984375t-0.56396484375,1.04248046875t-0.76904296875,0.56396484375t-1.31591796875,0.1708984375q-0.13671875,0-0.478515625-0.0341796875t-0.73486328125-0.13671875t-0.66650390625-0.2734375t-0.2734375-0.5126953125z M229.968359375,213.4326171875q0-1.4013671875,0.8203125-2.40966796875t1.99951171875-1.640625t2.58056640625-0.93994140625t2.59765625-0.3076171875q0.9228515625,0,2.4609375,0.2734375t3.0078125,0.8203125t2.54638671875,1.435546875t1.07666015625,2.0849609375q0,0.546875-0.41015625,0.97412109375t-0.8544921875,0.42724609375q-0.9228515625,0-1.6748046875-0.59814453125t-1.55517578125-1.2646484375t-1.76025390625-1.2646484375t-2.1533203125-0.59814453125t-2.17041015625,0.76904296875t-0.97412109375,2.03369140625q0,2.0849609375,1.4697265625,4.08447265625t3.22998046875,4.2041015625t3.22998046875,4.63134765625t1.4697265625,5.3662109375q0,1.2646484375-0.52978515625,2.13623046875t-1.4013671875,1.41845703125t-1.96533203125,0.83740234375t-2.119140625,0.29052734375q-1.1279296875,0-2.6318359375-0.52978515625t-2.8369140625-1.4013671875t-2.23876953125-2.03369140625t-0.90576171875-2.4267578125q0-0.615234375,0.87158203125-0.7861328125t1.28173828125-0.1708984375q0.205078125,0,0.63232421875,0.13671875t0.83740234375,0.3076171875t0.73486328125,0.3759765625t0.25634765625,0.4443359375q0.341796875,0.41015625,1.04248046875,1.21337890625t1.4013671875,1.298828125t1.23046875,0.35888671875t0.52978515625-1.5380859375q0-2.666015625-1.435546875-4.90478515625t-3.12744140625-4.375t-3.12744140625-4.23828125t-1.435546875-4.49462890625z M254.05375976563,209.8779296875q0-1.6064453125,0.63232421875-2.37548828125t2.30712890625-0.76904296875q0.9912109375,0,1.86279296875,0.41015625t0.87158203125,1.7431640625q0.13671875,1.9482421875,0.13671875,4.08447265625t0.3759765625,4.05029296875q0.8544921875-1.4013671875,1.93115234375-2.802734375t2.37548828125-2.4951171875t2.8369140625-1.76025390625t3.349609375-0.66650390625q2.4609375,0,4.169921875,1.025390625t2.81982421875,2.666015625t1.6064453125,3.70849609375t0.49560546875,4.15283203125q0,3.212890625-0.97412109375,5.24658203125t-2.58056640625,3.19580078125t-3.64013671875,1.572265625t-4.08447265625,0.41015625q-1.8115234375,0-3.3837890625-0.70068359375t-2.1875-2.64892578125q0-0.546875,0.80322265625-0.68359375t1.14501953125-0.13671875q1.1279296875,0,1.6748046875,0.615234375q0.41015625,0.478515625,0.90576171875,0.97412109375t1.04248046875,0.49560546875q1.0595703125,0,2.2216796875-0.59814453125t2.13623046875-1.572265625t1.640625-2.30712890625t0.66650390625-2.734375q0-1.1962890625-0.205078125-2.9736328125t-0.70068359375-3.41796875t-1.3671875-2.8369140625t-2.20458984375-1.1962890625q-2.0166015625,0-3.64013671875,1.845703125t-2.7001953125,4.443359375t-1.6748046875,5.400390625t-0.59814453125,4.6826171875t0.2392578125,4.7509765625t0.49560546875,5.96435546875t0.49560546875,5.96435546875t0.2392578125,4.7509765625q0,0.478515625-0.39306640625,0.76904296875t-0.93994140625,0.46142578125t-1.11083984375,0.205078125t-0.83740234375,0.0341796875q-0.9228515625,0-1.93115234375-0.205078125t-1.38427734375-1.2646484375q-0.478515625-1.6748046875-0.888671875-4.76806640625t-0.73486328125-6.8359375t-0.56396484375-7.861328125t-0.41015625-7.94677734375t-0.25634765625-7.0068359375t-0.08544921875-5.05859375z M286.82080078125,223.65234375q0-2.392578125,0.52978515625-5.6396484375t1.79443359375-6.15234375t3.33251953125-4.93896484375t5.21240234375-2.03369140625q2.939453125,0,4.4091796875,1.69189453125t1.4697265625,4.56298828125q0,1.8798828125-0.70068359375,4.11865234375t-1.99951171875,4.23828125t-3.076171875,3.33251953125t-3.96484375,1.3330078125l-0.888671875-0.068359375q0,0.9228515625,0.2734375,2.47802734375t0.80322265625,3.09326171875t1.3671875,2.7001953125t2.03369140625,1.162109375q1.7431640625,0,3.349609375-1.4013671875t3.0419921875-3.1103515625t2.666015625-3.1103515625t2.255859375-1.4013671875q0.546875,0,1.1279296875,0.1708984375t0.6494140625,0.95703125q0,0.478515625-0.25634765625,0.7861328125t-0.46142578125,0.68359375q-1.0595703125,1.8115234375-2.30712890625,3.4521484375t-2.81982421875,2.9736328125t-3.43505859375,2.10205078125t-4.11865234375,0.76904296875q-2.939453125,0-4.8876953125-1.04248046875t-3.14453125-2.802734375t-1.72607421875-4.0673828125t-0.52978515625-4.83642578125z M292.93896484375,221.0546875l0.95703125,0.8544921875q0.68359375,0.615234375,1.3671875,0.2734375t1.23046875-1.24755859375t1.00830078125-2.23876953125t0.8203125-2.734375t0.52978515625-2.734375t0.1708984375-2.2216796875l0-1.162109375t-0.1025390625-1.23046875t-0.35888671875-0.97412109375t-0.80322265625-0.49560546875q-0.1708984375-0.0341796875-0.3076171875-0.0341796875q-1.162109375,0-1.982421875,1.4697265625q-0.888671875,1.640625-1.435546875,3.98193359375t-0.7861328125,4.80224609375t-0.3076171875,3.69140625z M315.38374023438,212.6806640625q0-1.4013671875,0.49560546875-2.3583984375t2.10205078125-0.95703125q0.615234375,0,1.5380859375,0.18798828125t1.0595703125,0.93994140625q0.341796875,2.0166015625,0.3759765625,4.375t0.2392578125,4.443359375q0.7861328125-1.5380859375,2.0166015625-3.3154296875t2.802734375-3.28125t3.41796875-2.4951171875t3.759765625-0.9912109375q0.13671875,0,0.5126953125,0.1025390625t0.70068359375,0.29052734375t0.39306640625,0.42724609375t-0.3759765625,0.4443359375q-0.13671875,0.41015625-0.5810546875,0.49560546875t-0.7861328125,0.08544921875q-0.205078125,0-0.6494140625-0.1708984375q-2.529296875,1.3330078125-4.306640625,3.623046875t-2.9052734375,5.07568359375t-1.640625,5.87890625t-0.5126953125,6.03271484375q0,1.4697265625-0.66650390625,1.77734375t-2.13623046875,0.3076171875q-0.7861328125,0-1.65771484375-0.1708984375t-1.21337890625-1.09375q-0.615234375-1.9482421875-1.00830078125-4.4775390625t-0.59814453125-5.21240234375t-0.29052734375-5.28076171875t-0.08544921875-4.6826171875z"/><path fill="#" d="M354.3942578125,202.205c0,1.665-1.125,3.645-2.955,3.645c-0.69,0-1.38-0.285-1.515-1.08l-0.015,0c-0.42,0.6-0.99,0.945-1.665,0.945c-1.23,0-1.725-1.005-1.725-2.13c0-1.575,1.035-3.435,2.775-3.435c0.465,0,1.005,0.24,1.2,0.765c0.015-0.045,0.09-0.375,0.105-0.42c0.045-0.15,0.09-0.15,0.24-0.15l0.675,0c0.15,0,0.24,0.075,0.195,0.225l-0.735,3.03c-0.06,0.24-0.105,0.51-0.105,0.765c0,0.39,0.18,0.69,0.615,0.69c0.825,0,1.38-0.915,1.59-1.635c0.12-0.405,0.165-0.825,0.165-1.2c0-2.265-1.575-3.495-3.78-3.495c-2.58,0-4.425,2.145-4.425,4.71c0,2.445,1.605,3.72,3.96,3.72c0.855,0,1.77-0.18,2.58-0.48c0.045-0.015,0.09-0.03,0.135-0.03c0.075,0,0.12,0.06,0.15,0.135c0.045,0.105,0.24,0.6,0.24,0.69c0,0.075-0.06,0.135-0.15,0.18c-0.93,0.45-2.085,0.63-3.105,0.63c-3.03,0-5.52-1.635-5.52-4.8c0-3.45,2.76-5.955,6.15-5.955c2.805,0,4.92,1.8,4.92,4.68z M350.1642578125,201.905c-0.09-0.33-0.3-0.69-0.75-0.69c-0.99,0-1.395,1.605-1.395,2.34c0,0.42,0.165,0.945,0.66,0.945c0.51,0,0.825-0.345,1.065-0.795z M363.6267578125,200.42c0,1.71-1.485,3.21-3.045,4.68c-0.525,0.495-1.05,0.975-1.485,1.395l3.975,0c0.3,0,0.435,0.09,0.435,0.375l0,0.795c0,0.285-0.12,0.435-0.435,0.435l-5.88,0c-0.36,0-0.465-0.12-0.465-0.465l0-0.72c0-0.3,0.06-0.42,0.27-0.63c0.93-0.945,1.965-1.845,2.805-2.715c1.14-1.185,1.86-2.16,1.86-3.03c0-0.93-0.66-1.38-1.545-1.38c-0.675,0-1.47,0.255-2.16,0.66c-0.075,0.045-0.15,0.075-0.225,0.075c-0.12,0-0.21-0.09-0.27-0.225l-0.345-0.75c-0.03-0.075-0.06-0.135-0.06-0.195c0-0.12,0.075-0.225,0.225-0.315c0.885-0.54,1.95-0.885,3.09-0.885c1.86,0,3.255,1.02,3.255,2.895z M373.2192578125,202.88c0,2.835-1.02,5.4-3.705,5.4s-3.72-2.49-3.72-5.325c0-2.82,1.125-5.43,3.75-5.43c2.67,0,3.675,2.535,3.675,5.355z M371.2092578125,202.88c0-2.28-0.495-3.69-1.665-3.69c-1.245,0-1.74,1.5-1.74,3.69c0,2.235,0.435,3.72,1.71,3.72c1.29,0,1.695-1.5,1.695-3.72z M382.2417578125,200.42c0,1.71-1.485,3.21-3.045,4.68c-0.525,0.495-1.05,0.975-1.485,1.395l3.975,0c0.3,0,0.435,0.09,0.435,0.375l0,0.795c0,0.285-0.12,0.435-0.435,0.435l-5.88,0c-0.36,0-0.465-0.12-0.465-0.465l0-0.72c0-0.3,0.06-0.42,0.27-0.63c0.93-0.945,1.965-1.845,2.805-2.715c1.14-1.185,1.86-2.16,1.86-3.03c0-0.93-0.66-1.38-1.545-1.38c-0.675,0-1.47,0.255-2.16,0.66c-0.075,0.045-0.15,0.075-0.225,0.075c-0.12,0-0.21-0.09-0.27-0.225l-0.345-0.75c-0.03-0.075-0.06-0.135-0.06-0.195c0-0.12,0.075-0.225,0.225-0.315c0.885-0.54,1.95-0.885,3.09-0.885c1.86,0,3.255,1.02,3.255,2.895z M389.9742578125,207.65c0,0.345-0.135,0.45-0.465,0.45l-0.975,0c-0.39,0-0.48-0.075-0.48-0.435l0-7.83l-2.085,1.185c-0.09,0.06-0.18,0.09-0.255,0.09c-0.135,0-0.24-0.105-0.315-0.255l-0.345-0.675c-0.045-0.075-0.06-0.135-0.06-0.195c0-0.135,0.06-0.225,0.24-0.33l2.97-1.77c0.225-0.135,0.375-0.165,0.675-0.165l0.72,0c0.24,0,0.375,0.105,0.375,0.375l0,9.555z"/></svg>
